HIERARCHY
ROOT Hips
{
    OFFSET 0.000000 0.000000 0.000000
    CHANNELS 6 Xposition Yposition Zposition Zrotation Xrotation Yrotation
    JOINT Spine
    {
        OFFSET -0.000000 8.185774 0.000000
        CHANNELS 3 Zrotation Xrotation Yrotation
        JOINT Spine1
        {
            OFFSET -0.000000 23.949169 0.000000
            CHANNELS 3 Zrotation Xrotation Yrotation
            JOINT Neck
            {
                OFFSET -0.000000 23.850817 2.168256
                CHANNELS 3 Zrotation Xrotation Yrotation
                JOINT Head
                {
                    OFFSET -0.000000 13.975711 -1.996530
                    CHANNELS 3 Zrotation Xrotation Yrotation
                    End Site
                    {
                        OFFSET -0.000000 24.956627 0.000000
                    }
                }
            }
            JOINT LeftShoulder
            {
                OFFSET 3.979389 22.161966 -0.249083
                CHANNELS 3 Zrotation Xrotation Yrotation
                JOINT LeftArm
                {
                    OFFSET 10.812937 0.000000 0.000000
                    CHANNELS 3 Zrotation Xrotation Yrotation
                    JOINT LeftForeArm
                    {
                        OFFSET 31.697208 0.000000 0.000000
                        CHANNELS 3 Zrotation Xrotation Yrotation
                        JOINT LeftHand
                        {
                            OFFSET 27.047384 0.000000 0.000000
                            CHANNELS 3 Zrotation Xrotation Yrotation
                            End Site
                            {
                                OFFSET 14.973977 0.000000 0.000000
                            }
                        }
                    }
                }
            }
            JOINT RightShoulder
            {
                OFFSET -4.006446 22.161966 -0.249083
                CHANNELS 3 Zrotation Xrotation Yrotation
                JOINT RightArm
                {
                    OFFSET -10.812937 0.000000 0.000000
                    CHANNELS 3 Zrotation Xrotation Yrotation
                    JOINT RightForeArm
                    {
                        OFFSET -31.697208 0.000000 0.000000
                        CHANNELS 3 Zrotation Xrotation Yrotation
                        JOINT RightHand
                        {
                            OFFSET -27.047384 0.000000 0.000000
                            CHANNELS 3 Zrotation Xrotation Yrotation
                            End Site
                            {
                                OFFSET -14.973977 0.000000 0.000000
                            }
                        }
                    }
                }
            }
        }
    }
    JOINT LeftUpLeg
    {
        OFFSET 9.982651 0.000000 0.000000
        CHANNELS 3 Zrotation Xrotation Yrotation
        JOINT LeftLeg
        {
            OFFSET -0.000000 -38.511635 0.000000
            CHANNELS 3 Zrotation Xrotation Yrotation
            JOINT LeftFoot
            {
                OFFSET -0.000000 -44.789326 0.000000
                CHANNELS 3 Zrotation Xrotation Yrotation
                JOINT LeftToeBase
                {
                    OFFSET -0.000000 -6.488723 14.973977
                    CHANNELS 3 Zrotation Xrotation Yrotation
                    End Site
                    {
                        OFFSET -0.000000 0.000000 3.993060
                    }
                }
            }
        }
    }
    JOINT RightUpLeg
    {
        OFFSET -9.982651 0.000000 0.000000
        CHANNELS 3 Zrotation Xrotation Yrotation
        JOINT RightLeg
        {
            OFFSET -0.000000 -38.511635 0.000000
            CHANNELS 3 Zrotation Xrotation Yrotation
            JOINT RightFoot
            {
                OFFSET -0.000000 -44.789326 0.000000
                CHANNELS 3 Zrotation Xrotation Yrotation
                JOINT RightToeBase
                {
                    OFFSET -0.000000 -6.488723 14.973977
                    CHANNELS 3 Zrotation Xrotation Yrotation
                    End Site
                    {
                        OFFSET -0.000000 0.000000 3.993060
                    }
                }
            }
        }
    }
}
MOTION
Frames:    4
Frame Time:    0.008333
-33.047783    68.854866    -70.847496    4.849478    5.280878    177.039642    -3.969990    -0.960231    0.129592    8.202864    -19.217037    1.553857    -1.180922    7.750484    -8.578128    10.121682    10.366497    -8.318887    2.188379    0.795844    1.652867    -43.352619    32.351372    -11.571628    -7.609532    -1.046188    -137.494873    -14.398592    -20.649199    2.130118    -11.137505    -1.049553    -7.235373    60.109829    13.158743    0.645252    -1.974224    -34.174782    72.343208    -41.414486    -18.252367    -41.192005    31.927225    -29.593166    16.776058    -171.759796    87.949287    162.679169    -13.364783    -40.502987    -1.629947    0.000000    0.000000    0.000000    -24.223825    -28.573881    -16.661329    27.556980    86.022217    -14.021846    11.513158    -37.438107    -18.367203    0.000000    0.000000    0.000000    
-32.889427    68.878761    -71.036186    4.785929    5.292860    176.826447    -3.236796    -0.916954    -0.178786    7.310139    -19.017069    1.072951    -0.776758    7.361901    -8.090662    10.165238    10.583384    -7.856250    2.555046    0.454910    2.442690    -42.982704    32.877590    -10.209916    -6.772584    -2.391845    -137.030289    -13.932364    -19.563034    1.611271    -10.871836    -1.487473    -7.170167    60.098248    15.869402    0.817281    -1.847058    -33.593494    77.001022    -39.675880    -18.733147    -40.052876    31.937725    -29.302820    16.880085    -175.096542    88.067299    166.130402    -13.635727    -40.319820    -1.767771    0.000000    0.000000    0.000000    -24.122406    -28.581964    -16.410204    27.880476    86.138458    -14.203556    11.547569    -37.378887    -18.267031    0.000000    0.000000    0.000000    
-32.743500    68.884705    -71.245163    4.639890    5.354379    176.498734    -2.731908    -0.986268    -0.397397    6.696418    -18.551575    0.720962    -0.389878    6.868801    -7.669300    10.256283    10.821493    -7.463583    2.918355    0.361451    3.061866    -42.596699    33.217007    -9.063433    -5.966699    -4.512810    -136.116913    -15.030194    -19.054560    -0.127254    -10.853025    -1.773233    -7.177833    60.232098    18.478048    1.150166    -1.886415    -32.839828    82.008568    -37.195557    -19.509558    -37.805695    31.862984    -28.829613    16.891506    -174.194031    88.221489    165.323624    -13.941031    -40.253975    -1.942242    0.000000    0.000000    0.000000    -24.074142    -28.619900    -15.930070    29.740559    86.260056    -15.833817    11.511014    -37.367317    -18.235744    0.000000    0.000000    0.000000    
-32.604958    68.872437    -71.397308    4.574227    5.234927    176.170013    -2.062641    -1.157343    -0.666788    6.115121    -18.164968    0.332436    -0.206385    6.395222    -7.226667    10.440591    11.065485    -7.030270    3.230165    0.565992    3.540382    -42.269398    33.118736    -7.850771    -5.627650    -6.638142    -134.896561    -17.267962    -19.500870    -2.616283    -10.897612    -2.240589    -7.417752    60.177109    21.003124    1.758241    -1.717149    -31.346411    87.382309    -34.531010    -19.545612    -35.566399    31.933699    -28.587259    17.045626    -174.904694    88.304298    166.007538    -14.176480    -40.244694    -1.951263    0.000000    0.000000    0.000000    -23.951649    -28.874447    -15.494248    32.313419    86.361748    -18.239544    11.465563    -37.354881    -18.238869    0.000000    0.000000    0.000000    
